<mxfile host="Electron" agent="Mozilla/5.0 (Windows NT 10.0; Win64; x64) AppleWebKit/537.36 (KHTML, like Gecko) draw.io/27.0.9 Chrome/134.0.6998.205 Electron/35.4.0 Safari/537.36" version="27.0.9">
  <diagram name="Page-1" id="s0_r844FjM8sFimcPApi">
    <mxGraphModel dx="5173" dy="2247" grid="1" gridSize="10" guides="1" tooltips="1" connect="1" arrows="1" fold="1" page="1" pageScale="1" pageWidth="850" pageHeight="1100" math="0" shadow="0">
      <root>
        <mxCell id="0" />
        <mxCell id="1" parent="0" />
        <object placeholders="1" c4Name="Usuário" c4Type="Persona" c4Description="Pessoa que deseja automatizar e gerenciar suas publicações online." label="&lt;font style=&quot;font-size: 16px&quot;&gt;&lt;b&gt;%c4Name%&lt;/b&gt;&lt;/font&gt;&lt;div&gt;[%c4Type%]&lt;/div&gt;&lt;br&gt;&lt;div&gt;&lt;font style=&quot;font-size: 11px&quot;&gt;&lt;font color=&quot;#cccccc&quot;&gt;%c4Description%&lt;/font&gt;&lt;/div&gt;" id="xSj052O3vt3fWUmC_2N5-1">
          <mxCell style="html=1;fontSize=11;dashed=0;whiteSpace=wrap;fillColor=#083F75;strokeColor=#06315C;fontColor=#ffffff;shape=mxgraph.c4.person2;align=center;metaEdit=1;points=[[0.5,0,0],[1,0.5,0],[1,0.75,0],[0.75,1,0],[0.5,1,0],[0.25,1,0],[0,0.75,0],[0,0.5,0]];resizable=0;" parent="1" vertex="1">
            <mxGeometry x="325" y="40" width="200" height="180" as="geometry" />
          </mxCell>
        </object>
        <object placeholders="1" c4Name="Aplicação Web" c4Type="Container" c4Technology="React" c4Description="Single-Page Application (SPA) que fornece toda a interface do usuário. Usa o armazenamento do navegador para guardar tokens de sessão e cache de dados de UI." label="&lt;font style=&quot;font-size: 16px&quot;&gt;&lt;b&gt;%c4Name%&lt;/b&gt;&lt;/font&gt;&lt;div&gt;[%c4Type%:&amp;nbsp;%c4Technology%]&lt;/div&gt;&lt;br&gt;&lt;div&gt;&lt;font style=&quot;font-size: 11px&quot;&gt;&lt;font color=&quot;#E6E6E6&quot;&gt;%c4Description%&lt;/font&gt;&lt;/div&gt;" id="uGQQSx_CwPP-6w2Zcl26-1">
          <mxCell style="shape=mxgraph.c4.webBrowserContainer2;whiteSpace=wrap;html=1;boundedLbl=1;rounded=0;labelBackgroundColor=none;strokeColor=#118ACD;fillColor=#23A2D9;strokeColor=#118ACD;strokeColor2=#0E7DAD;fontSize=12;fontColor=#ffffff;align=center;metaEdit=1;points=[[0.5,0,0],[1,0.25,0],[1,0.5,0],[1,0.75,0],[0.5,1,0],[0,0.75,0],[0,0.5,0],[0,0.25,0]];resizable=0;" parent="1" vertex="1">
            <mxGeometry x="305" y="300" width="240" height="160" as="geometry" />
          </mxCell>
        </object>
        <mxCell id="uGQQSx_CwPP-6w2Zcl26-2" style="edgeStyle=orthogonalEdgeStyle;rounded=0;orthogonalLoop=1;jettySize=auto;html=1;entryX=0.5;entryY=0;entryDx=0;entryDy=0;entryPerimeter=0;dashed=1;exitX=0.5;exitY=1;exitDx=0;exitDy=0;exitPerimeter=0;" parent="1" source="xSj052O3vt3fWUmC_2N5-1" target="uGQQSx_CwPP-6w2Zcl26-1" edge="1">
          <mxGeometry relative="1" as="geometry">
            <mxPoint x="424" y="370" as="targetPoint" />
            <mxPoint x="424" y="220" as="sourcePoint" />
          </mxGeometry>
        </mxCell>
        <mxCell id="uGQQSx_CwPP-6w2Zcl26-3" value="Gerencia conta, templates, integrações e agenda publicações." style="edgeLabel;html=1;align=center;verticalAlign=middle;resizable=0;points=[];" parent="uGQQSx_CwPP-6w2Zcl26-2" vertex="1" connectable="0">
          <mxGeometry x="-0.1306" y="-2" relative="1" as="geometry">
            <mxPoint y="1" as="offset" />
          </mxGeometry>
        </mxCell>
        <object placeholders="1" c4Name="API Gateway" c4Type="ContainerScopeBoundary" c4Application="Container" label="&lt;font style=&quot;font-size: 16px&quot;&gt;&lt;b&gt;&lt;div style=&quot;text-align: left&quot;&gt;%c4Name%&lt;/div&gt;&lt;/b&gt;&lt;/font&gt;&lt;div style=&quot;text-align: left&quot;&gt;[%c4Application%]&lt;/div&gt;" id="uGQQSx_CwPP-6w2Zcl26-4">
          <mxCell style="rounded=1;fontSize=11;whiteSpace=wrap;html=1;dashed=1;arcSize=20;fillColor=none;strokeColor=#666666;fontColor=#333333;labelBackgroundColor=none;align=left;verticalAlign=bottom;labelBorderColor=none;spacingTop=0;spacing=10;dashPattern=8 4;metaEdit=1;rotatable=0;perimeter=rectanglePerimeter;noLabel=0;labelPadding=0;allowArrows=0;connectable=0;expand=0;recursiveResize=0;editable=1;pointerEvents=0;absoluteArcSize=1;points=[[0.25,0,0],[0.5,0,0],[0.75,0,0],[1,0.25,0],[1,0.5,0],[1,0.75,0],[0.75,1,0],[0.5,1,0],[0.25,1,0],[0,0.75,0],[0,0.5,0],[0,0.25,0]];" parent="1" vertex="1">
            <mxGeometry x="-180" y="540" width="1210" height="740" as="geometry" />
          </mxCell>
        </object>
        <object placeholders="1" c4Name="Router" c4Type="Component" c4Technology="Golang" c4Description="Ponto de entrada HTTP, direciona requisições e também valida o token da sessão." label="&lt;font style=&quot;font-size: 16px&quot;&gt;&lt;b&gt;%c4Name%&lt;/b&gt;&lt;/font&gt;&lt;div&gt;[%c4Type%: %c4Technology%]&lt;/div&gt;&lt;br&gt;&lt;div&gt;&lt;font style=&quot;font-size: 11px&quot;&gt;%c4Description%&lt;/font&gt;&lt;/div&gt;" id="uGQQSx_CwPP-6w2Zcl26-6">
          <mxCell style="rounded=1;whiteSpace=wrap;html=1;labelBackgroundColor=none;fillColor=#63BEF2;fontColor=#ffffff;align=center;arcSize=6;strokeColor=#2086C9;metaEdit=1;resizable=0;points=[[0.25,0,0],[0.5,0,0],[0.75,0,0],[1,0.25,0],[1,0.5,0],[1,0.75,0],[0.75,1,0],[0.5,1,0],[0.25,1,0],[0,0.75,0],[0,0.5,0],[0,0.25,0]];" parent="1" vertex="1">
            <mxGeometry x="305" y="590" width="240" height="120" as="geometry" />
          </mxCell>
        </object>
        <object placeholders="1" c4Name="Controller de Templates" c4Type="Component" c4Technology="Golang" c4Description="Processa as chamadas relacionadas ao gerenciamento de templates e detém as regras de negócio respectivas." label="&lt;font style=&quot;font-size: 16px&quot;&gt;&lt;b&gt;%c4Name%&lt;/b&gt;&lt;/font&gt;&lt;div&gt;[%c4Type%: %c4Technology%]&lt;/div&gt;&lt;br&gt;&lt;div&gt;&lt;font style=&quot;font-size: 11px&quot;&gt;%c4Description%&lt;/font&gt;&lt;/div&gt;" id="uGQQSx_CwPP-6w2Zcl26-7">
          <mxCell style="rounded=1;whiteSpace=wrap;html=1;labelBackgroundColor=none;fillColor=#63BEF2;fontColor=#ffffff;align=center;arcSize=6;strokeColor=#2086C9;metaEdit=1;resizable=0;points=[[0.25,0,0],[0.5,0,0],[0.75,0,0],[1,0.25,0],[1,0.5,0],[1,0.75,0],[0.75,1,0],[0.5,1,0],[0.25,1,0],[0,0.75,0],[0,0.5,0],[0,0.25,0]];" parent="1" vertex="1">
            <mxGeometry x="-130" y="820" width="240" height="120" as="geometry" />
          </mxCell>
        </object>
        <mxCell id="uGQQSx_CwPP-6w2Zcl26-71" style="edgeStyle=orthogonalEdgeStyle;shape=connector;rounded=0;orthogonalLoop=1;jettySize=auto;html=1;exitX=0.25;exitY=1;exitDx=0;exitDy=0;exitPerimeter=0;dashed=1;strokeColor=default;align=center;verticalAlign=middle;fontFamily=Helvetica;fontSize=11;fontColor=default;labelBackgroundColor=default;endArrow=classic;entryX=0.5;entryY=1;entryDx=0;entryDy=0;entryPerimeter=0;" parent="1" source="uGQQSx_CwPP-6w2Zcl26-8" edge="1" target="uGQQSx_CwPP-6w2Zcl26-64">
          <mxGeometry relative="1" as="geometry">
            <mxPoint x="-150" y="1420" as="targetPoint" />
            <Array as="points">
              <mxPoint x="220" y="970" />
              <mxPoint x="-270" y="970" />
              <mxPoint x="-270" y="1210" />
              <mxPoint x="-980" y="1210" />
              <mxPoint x="-980" y="640" />
            </Array>
          </mxGeometry>
        </mxCell>
        <object placeholders="1" c4Name="Controller de Perfil" c4Type="Component" c4Technology="Golang" c4Description="Processa as chamadas relacionadas ao gerenciamento de dados do usuário e detém as regras de negócio respectivas." label="&lt;font style=&quot;font-size: 16px&quot;&gt;&lt;b&gt;%c4Name%&lt;/b&gt;&lt;/font&gt;&lt;div&gt;[%c4Type%: %c4Technology%]&lt;/div&gt;&lt;br&gt;&lt;div&gt;&lt;font style=&quot;font-size: 11px&quot;&gt;%c4Description%&lt;/font&gt;&lt;/div&gt;" id="uGQQSx_CwPP-6w2Zcl26-8">
          <mxCell style="rounded=1;whiteSpace=wrap;html=1;labelBackgroundColor=none;fillColor=#63BEF2;fontColor=#ffffff;align=center;arcSize=6;strokeColor=#2086C9;metaEdit=1;resizable=0;points=[[0.25,0,0],[0.5,0,0],[0.75,0,0],[1,0.25,0],[1,0.5,0],[1,0.75,0],[0.75,1,0],[0.5,1,0],[0.25,1,0],[0,0.75,0],[0,0.5,0],[0,0.25,0]];" parent="1" vertex="1">
            <mxGeometry x="160" y="820" width="240" height="120" as="geometry" />
          </mxCell>
        </object>
        <mxCell id="uGQQSx_CwPP-6w2Zcl26-72" style="edgeStyle=orthogonalEdgeStyle;shape=connector;rounded=0;orthogonalLoop=1;jettySize=auto;html=1;exitX=0.25;exitY=1;exitDx=0;exitDy=0;exitPerimeter=0;dashed=1;strokeColor=default;align=center;verticalAlign=middle;fontFamily=Helvetica;fontSize=11;fontColor=default;labelBackgroundColor=default;endArrow=classic;entryX=0.5;entryY=1;entryDx=0;entryDy=0;entryPerimeter=0;" parent="1" source="uGQQSx_CwPP-6w2Zcl26-9" target="uGQQSx_CwPP-6w2Zcl26-64" edge="1">
          <mxGeometry relative="1" as="geometry">
            <mxPoint x="-150" y="1420" as="targetPoint" />
            <Array as="points">
              <mxPoint x="510" y="970" />
              <mxPoint x="-270" y="970" />
              <mxPoint x="-270" y="1210" />
              <mxPoint x="-980" y="1210" />
              <mxPoint x="-980" y="640" />
            </Array>
          </mxGeometry>
        </mxCell>
        <object placeholders="1" c4Name="Controller de Integrações" c4Type="Component" c4Technology="Golang" c4Description="Processa as chamadas relacionadas ao gerenciamento de integrações e detém as regras de negócio respectivas." label="&lt;font style=&quot;font-size: 16px&quot;&gt;&lt;b&gt;%c4Name%&lt;/b&gt;&lt;/font&gt;&lt;div&gt;[%c4Type%: %c4Technology%]&lt;/div&gt;&lt;br&gt;&lt;div&gt;&lt;font style=&quot;font-size: 11px&quot;&gt;%c4Description%&lt;/font&gt;&lt;/div&gt;" id="uGQQSx_CwPP-6w2Zcl26-9">
          <mxCell style="rounded=1;whiteSpace=wrap;html=1;labelBackgroundColor=none;fillColor=#63BEF2;fontColor=#ffffff;align=center;arcSize=6;strokeColor=#2086C9;metaEdit=1;resizable=0;points=[[0.25,0,0],[0.5,0,0],[0.75,0,0],[1,0.25,0],[1,0.5,0],[1,0.75,0],[0.75,1,0],[0.5,1,0],[0.25,1,0],[0,0.75,0],[0,0.5,0],[0,0.25,0]];" parent="1" vertex="1">
            <mxGeometry x="450" y="820" width="240" height="120" as="geometry" />
          </mxCell>
        </object>
        <object placeholders="1" c4Name="Controller de Publicações" c4Type="Component" c4Technology="Golang" c4Description="Processa as chamadas relacionadas ao gerenciamento de publicações e detém as regras de negócio respectivas." label="&lt;font style=&quot;font-size: 16px&quot;&gt;&lt;b&gt;%c4Name%&lt;/b&gt;&lt;/font&gt;&lt;div&gt;[%c4Type%: %c4Technology%]&lt;/div&gt;&lt;br&gt;&lt;div&gt;&lt;font style=&quot;font-size: 11px&quot;&gt;%c4Description%&lt;/font&gt;&lt;/div&gt;" id="uGQQSx_CwPP-6w2Zcl26-10">
          <mxCell style="rounded=1;whiteSpace=wrap;html=1;labelBackgroundColor=none;fillColor=#63BEF2;fontColor=#ffffff;align=center;arcSize=6;strokeColor=#2086C9;metaEdit=1;resizable=0;points=[[0.25,0,0],[0.5,0,0],[0.75,0,0],[1,0.25,0],[1,0.5,0],[1,0.75,0],[0.75,1,0],[0.5,1,0],[0.25,1,0],[0,0.75,0],[0,0.5,0],[0,0.25,0]];" parent="1" vertex="1">
            <mxGeometry x="740" y="820" width="240" height="120" as="geometry" />
          </mxCell>
        </object>
        <mxCell id="uGQQSx_CwPP-6w2Zcl26-11" style="edgeStyle=orthogonalEdgeStyle;rounded=0;orthogonalLoop=1;jettySize=auto;html=1;entryX=0.5;entryY=0;entryDx=0;entryDy=0;entryPerimeter=0;dashed=1;" parent="1" source="uGQQSx_CwPP-6w2Zcl26-1" target="uGQQSx_CwPP-6w2Zcl26-6" edge="1">
          <mxGeometry relative="1" as="geometry" />
        </mxCell>
        <mxCell id="uGQQSx_CwPP-6w2Zcl26-12" value="Faz requisição HTTPS para" style="edgeLabel;html=1;align=center;verticalAlign=middle;resizable=0;points=[];" parent="uGQQSx_CwPP-6w2Zcl26-11" vertex="1" connectable="0">
          <mxGeometry x="-0.0088" y="3" relative="1" as="geometry">
            <mxPoint x="-3" y="36" as="offset" />
          </mxGeometry>
        </mxCell>
        <mxCell id="uGQQSx_CwPP-6w2Zcl26-14" style="edgeStyle=orthogonalEdgeStyle;rounded=0;orthogonalLoop=1;jettySize=auto;html=1;exitX=0.5;exitY=1;exitDx=0;exitDy=0;exitPerimeter=0;entryX=0.5;entryY=0;entryDx=0;entryDy=0;entryPerimeter=0;dashed=1;" parent="1" source="uGQQSx_CwPP-6w2Zcl26-6" target="uGQQSx_CwPP-6w2Zcl26-7" edge="1">
          <mxGeometry relative="1" as="geometry" />
        </mxCell>
        <mxCell id="uGQQSx_CwPP-6w2Zcl26-15" value="Direciona para" style="edgeLabel;html=1;align=center;verticalAlign=middle;resizable=0;points=[];" parent="uGQQSx_CwPP-6w2Zcl26-14" vertex="1" connectable="0">
          <mxGeometry x="0.2057" y="-3" relative="1" as="geometry">
            <mxPoint x="-166" y="28" as="offset" />
          </mxGeometry>
        </mxCell>
        <mxCell id="uGQQSx_CwPP-6w2Zcl26-16" style="edgeStyle=orthogonalEdgeStyle;rounded=0;orthogonalLoop=1;jettySize=auto;html=1;entryX=0.5;entryY=0;entryDx=0;entryDy=0;entryPerimeter=0;dashed=1;" parent="1" source="uGQQSx_CwPP-6w2Zcl26-6" target="uGQQSx_CwPP-6w2Zcl26-8" edge="1">
          <mxGeometry relative="1" as="geometry" />
        </mxCell>
        <mxCell id="uGQQSx_CwPP-6w2Zcl26-17" value="Direciona para" style="edgeLabel;html=1;align=center;verticalAlign=middle;resizable=0;points=[];" parent="uGQQSx_CwPP-6w2Zcl26-16" vertex="1" connectable="0">
          <mxGeometry x="0.7219" y="3" relative="1" as="geometry">
            <mxPoint x="-3" y="6" as="offset" />
          </mxGeometry>
        </mxCell>
        <mxCell id="uGQQSx_CwPP-6w2Zcl26-18" style="edgeStyle=orthogonalEdgeStyle;rounded=0;orthogonalLoop=1;jettySize=auto;html=1;exitX=0.5;exitY=1;exitDx=0;exitDy=0;exitPerimeter=0;entryX=0.5;entryY=0;entryDx=0;entryDy=0;entryPerimeter=0;dashed=1;" parent="1" source="uGQQSx_CwPP-6w2Zcl26-6" target="uGQQSx_CwPP-6w2Zcl26-9" edge="1">
          <mxGeometry relative="1" as="geometry" />
        </mxCell>
        <mxCell id="uGQQSx_CwPP-6w2Zcl26-19" value="Direciona para" style="edgeLabel;html=1;align=center;verticalAlign=middle;resizable=0;points=[];" parent="uGQQSx_CwPP-6w2Zcl26-18" vertex="1" connectable="0">
          <mxGeometry x="0.7932" y="3" relative="1" as="geometry">
            <mxPoint y="-1" as="offset" />
          </mxGeometry>
        </mxCell>
        <mxCell id="uGQQSx_CwPP-6w2Zcl26-20" style="edgeStyle=orthogonalEdgeStyle;rounded=0;orthogonalLoop=1;jettySize=auto;html=1;entryX=0.5;entryY=0;entryDx=0;entryDy=0;entryPerimeter=0;exitX=0.5;exitY=1;exitDx=0;exitDy=0;exitPerimeter=0;dashed=1;" parent="1" source="uGQQSx_CwPP-6w2Zcl26-6" target="uGQQSx_CwPP-6w2Zcl26-10" edge="1">
          <mxGeometry relative="1" as="geometry" />
        </mxCell>
        <mxCell id="uGQQSx_CwPP-6w2Zcl26-21" value="Direciona para" style="edgeLabel;html=1;align=center;verticalAlign=middle;resizable=0;points=[];" parent="uGQQSx_CwPP-6w2Zcl26-20" vertex="1" connectable="0">
          <mxGeometry x="0.8976" y="1" relative="1" as="geometry">
            <mxPoint y="-1" as="offset" />
          </mxGeometry>
        </mxCell>
        <object placeholders="1" c4Name="Serviço de Autenticação" c4Type="Container" c4Technology="Golang" c4Description="Gerencia usuários, senhas e tokens de sessão." label="&lt;font style=&quot;font-size: 16px&quot;&gt;&lt;b&gt;%c4Name%&lt;/b&gt;&lt;/font&gt;&lt;div&gt;[%c4Type%: %c4Technology%]&lt;/div&gt;&lt;br&gt;&lt;div&gt;&lt;font style=&quot;font-size: 11px&quot;&gt;&lt;font color=&quot;#E6E6E6&quot;&gt;%c4Description%&lt;/font&gt;&lt;/div&gt;" id="uGQQSx_CwPP-6w2Zcl26-22">
          <mxCell style="rounded=1;whiteSpace=wrap;html=1;fontSize=11;labelBackgroundColor=none;fillColor=#23A2D9;fontColor=#ffffff;align=center;arcSize=10;strokeColor=#0E7DAD;metaEdit=1;resizable=0;points=[[0.25,0,0],[0.5,0,0],[0.75,0,0],[1,0.25,0],[1,0.5,0],[1,0.75,0],[0.75,1,0],[0.5,1,0],[0.25,1,0],[0,0.75,0],[0,0.5,0],[0,0.25,0]];" parent="1" vertex="1">
            <mxGeometry x="1090" y="590" width="240" height="120" as="geometry" />
          </mxCell>
        </object>
        <object placeholders="1" c4Name="Cache Remoto" c4Type="Container" c4Technology="Redis" c4Description="Armazena sessões e cache de &quot;dados quentes&quot;." label="&lt;font style=&quot;font-size: 16px&quot;&gt;&lt;b&gt;%c4Name%&lt;/b&gt;&lt;/font&gt;&lt;div&gt;[%c4Type%: %c4Technology%]&lt;/div&gt;&lt;br&gt;&lt;div&gt;&lt;font style=&quot;font-size: 11px&quot;&gt;&lt;font color=&quot;#E6E6E6&quot;&gt;%c4Description%&lt;/font&gt;&lt;/div&gt;" id="uGQQSx_CwPP-6w2Zcl26-23">
          <mxCell style="rounded=1;whiteSpace=wrap;html=1;fontSize=11;labelBackgroundColor=none;fillColor=#23A2D9;fontColor=#ffffff;align=center;arcSize=10;strokeColor=#0E7DAD;metaEdit=1;resizable=0;points=[[0.25,0,0],[0.5,0,0],[0.75,0,0],[1,0.25,0],[1,0.5,0],[1,0.75,0],[0.75,1,0],[0.5,1,0],[0.25,1,0],[0,0.75,0],[0,0.5,0],[0,0.25,0]];" parent="1" vertex="1">
            <mxGeometry x="1090" y="820" width="240" height="120" as="geometry" />
          </mxCell>
        </object>
        <mxCell id="uGQQSx_CwPP-6w2Zcl26-24" style="edgeStyle=orthogonalEdgeStyle;rounded=0;orthogonalLoop=1;jettySize=auto;html=1;entryX=0;entryY=0.5;entryDx=0;entryDy=0;entryPerimeter=0;dashed=1;" parent="1" source="uGQQSx_CwPP-6w2Zcl26-6" target="uGQQSx_CwPP-6w2Zcl26-22" edge="1">
          <mxGeometry relative="1" as="geometry" />
        </mxCell>
        <mxCell id="uGQQSx_CwPP-6w2Zcl26-25" value="&lt;div&gt;Valida usuário e&amp;nbsp;&lt;/div&gt;&lt;div&gt;sessão com&lt;/div&gt;" style="edgeLabel;html=1;align=center;verticalAlign=middle;resizable=0;points=[];" parent="uGQQSx_CwPP-6w2Zcl26-24" vertex="1" connectable="0">
          <mxGeometry x="0.1474" y="-3" relative="1" as="geometry">
            <mxPoint x="-1" as="offset" />
          </mxGeometry>
        </mxCell>
        <mxCell id="uGQQSx_CwPP-6w2Zcl26-26" style="edgeStyle=orthogonalEdgeStyle;rounded=0;orthogonalLoop=1;jettySize=auto;html=1;entryX=0.5;entryY=0;entryDx=0;entryDy=0;entryPerimeter=0;dashed=1;" parent="1" source="uGQQSx_CwPP-6w2Zcl26-22" target="uGQQSx_CwPP-6w2Zcl26-23" edge="1">
          <mxGeometry relative="1" as="geometry" />
        </mxCell>
        <mxCell id="uGQQSx_CwPP-6w2Zcl26-27" value="Verifica/Grava sessões em" style="edgeLabel;html=1;align=center;verticalAlign=middle;resizable=0;points=[];" parent="uGQQSx_CwPP-6w2Zcl26-26" vertex="1" connectable="0">
          <mxGeometry x="0.2303" y="-5" relative="1" as="geometry">
            <mxPoint x="5" y="-18" as="offset" />
          </mxGeometry>
        </mxCell>
        <object placeholders="1" c4Name="Model de Templates" c4Type="Component" c4Technology="Golang" c4Description="Abstração para acesso ao banco de dados com as operações relacionadas ao gerenciamento de templates." label="&lt;font style=&quot;font-size: 16px&quot;&gt;&lt;b&gt;%c4Name%&lt;/b&gt;&lt;/font&gt;&lt;div&gt;[%c4Type%: %c4Technology%]&lt;/div&gt;&lt;br&gt;&lt;div&gt;&lt;font style=&quot;font-size: 11px&quot;&gt;%c4Description%&lt;/font&gt;&lt;/div&gt;" id="uGQQSx_CwPP-6w2Zcl26-28">
          <mxCell style="rounded=1;whiteSpace=wrap;html=1;labelBackgroundColor=none;fillColor=#63BEF2;fontColor=#ffffff;align=center;arcSize=6;strokeColor=#2086C9;metaEdit=1;resizable=0;points=[[0.25,0,0],[0.5,0,0],[0.75,0,0],[1,0.25,0],[1,0.5,0],[1,0.75,0],[0.75,1,0],[0.5,1,0],[0.25,1,0],[0,0.75,0],[0,0.5,0],[0,0.25,0]];" parent="1" vertex="1">
            <mxGeometry x="-130" y="1030" width="240" height="120" as="geometry" />
          </mxCell>
        </object>
        <object placeholders="1" c4Name="Model de Perfil" c4Type="Component" c4Technology="Golang" c4Description="Abstração para acesso ao banco de dados com as operações relacionadas ao gerenciamento dos dados de usuário." label="&lt;font style=&quot;font-size: 16px&quot;&gt;&lt;b&gt;%c4Name%&lt;/b&gt;&lt;/font&gt;&lt;div&gt;[%c4Type%: %c4Technology%]&lt;/div&gt;&lt;br&gt;&lt;div&gt;&lt;font style=&quot;font-size: 11px&quot;&gt;%c4Description%&lt;/font&gt;&lt;/div&gt;" id="uGQQSx_CwPP-6w2Zcl26-29">
          <mxCell style="rounded=1;whiteSpace=wrap;html=1;labelBackgroundColor=none;fillColor=#63BEF2;fontColor=#ffffff;align=center;arcSize=6;strokeColor=#2086C9;metaEdit=1;resizable=0;points=[[0.25,0,0],[0.5,0,0],[0.75,0,0],[1,0.25,0],[1,0.5,0],[1,0.75,0],[0.75,1,0],[0.5,1,0],[0.25,1,0],[0,0.75,0],[0,0.5,0],[0,0.25,0]];" parent="1" vertex="1">
            <mxGeometry x="160" y="1030" width="240" height="120" as="geometry" />
          </mxCell>
        </object>
        <mxCell id="uGQQSx_CwPP-6w2Zcl26-42" style="edgeStyle=orthogonalEdgeStyle;shape=connector;rounded=0;orthogonalLoop=1;jettySize=auto;html=1;exitX=0.75;exitY=1;exitDx=0;exitDy=0;exitPerimeter=0;dashed=1;strokeColor=default;align=center;verticalAlign=middle;fontFamily=Helvetica;fontSize=11;fontColor=default;labelBackgroundColor=default;endArrow=classic;entryX=0.5;entryY=1;entryDx=0;entryDy=0;entryPerimeter=0;" parent="1" source="uGQQSx_CwPP-6w2Zcl26-30" target="uGQQSx_CwPP-6w2Zcl26-23" edge="1">
          <mxGeometry relative="1" as="geometry">
            <mxPoint x="1210" y="950" as="targetPoint" />
            <Array as="points">
              <mxPoint x="630" y="1220" />
              <mxPoint x="1211" y="1220" />
              <mxPoint x="1211" y="950" />
              <mxPoint x="1210" y="950" />
            </Array>
          </mxGeometry>
        </mxCell>
        <mxCell id="uGQQSx_CwPP-6w2Zcl26-54" style="edgeStyle=orthogonalEdgeStyle;shape=connector;rounded=0;orthogonalLoop=1;jettySize=auto;html=1;exitX=0.25;exitY=1;exitDx=0;exitDy=0;exitPerimeter=0;dashed=1;strokeColor=default;align=center;verticalAlign=middle;fontFamily=Helvetica;fontSize=11;fontColor=default;labelBackgroundColor=default;endArrow=classic;" parent="1" source="uGQQSx_CwPP-6w2Zcl26-30" edge="1">
          <mxGeometry relative="1" as="geometry">
            <mxPoint x="430" y="1360" as="targetPoint" />
            <Array as="points">
              <mxPoint x="510" y="1240" />
              <mxPoint x="431" y="1240" />
              <mxPoint x="431" y="1360" />
            </Array>
          </mxGeometry>
        </mxCell>
        <object placeholders="1" c4Name="Model de Integrações" c4Type="Component" c4Technology="Golang" c4Description="Abstração para acesso ao banco de dados com as operações relacionadas ao gerenciamento de integrações." label="&lt;font style=&quot;font-size: 16px&quot;&gt;&lt;b&gt;%c4Name%&lt;/b&gt;&lt;/font&gt;&lt;div&gt;[%c4Type%: %c4Technology%]&lt;/div&gt;&lt;br&gt;&lt;div&gt;&lt;font style=&quot;font-size: 11px&quot;&gt;%c4Description%&lt;/font&gt;&lt;/div&gt;" id="uGQQSx_CwPP-6w2Zcl26-30">
          <mxCell style="rounded=1;whiteSpace=wrap;html=1;labelBackgroundColor=none;fillColor=#63BEF2;fontColor=#ffffff;align=center;arcSize=6;strokeColor=#2086C9;metaEdit=1;resizable=0;points=[[0.25,0,0],[0.5,0,0],[0.75,0,0],[1,0.25,0],[1,0.5,0],[1,0.75,0],[0.75,1,0],[0.5,1,0],[0.25,1,0],[0,0.75,0],[0,0.5,0],[0,0.25,0]];" parent="1" vertex="1">
            <mxGeometry x="450" y="1030" width="240" height="120" as="geometry" />
          </mxCell>
        </object>
        <mxCell id="uGQQSx_CwPP-6w2Zcl26-55" style="edgeStyle=orthogonalEdgeStyle;shape=connector;rounded=0;orthogonalLoop=1;jettySize=auto;html=1;exitX=0.25;exitY=1;exitDx=0;exitDy=0;exitPerimeter=0;dashed=1;strokeColor=default;align=center;verticalAlign=middle;fontFamily=Helvetica;fontSize=11;fontColor=default;labelBackgroundColor=default;endArrow=classic;" parent="1" source="uGQQSx_CwPP-6w2Zcl26-31" edge="1">
          <mxGeometry relative="1" as="geometry">
            <mxPoint x="430" y="1360" as="targetPoint" />
            <Array as="points">
              <mxPoint x="800" y="1240" />
              <mxPoint x="431" y="1240" />
              <mxPoint x="431" y="1360" />
            </Array>
          </mxGeometry>
        </mxCell>
        <object placeholders="1" c4Name="Model de Publicações" c4Type="Component" c4Technology="Golang" c4Description="Abstração para acesso ao banco de dados com as operações relacionadas ao gerenciamento de publicações." label="&lt;font style=&quot;font-size: 16px&quot;&gt;&lt;b&gt;%c4Name%&lt;/b&gt;&lt;/font&gt;&lt;div&gt;[%c4Type%: %c4Technology%]&lt;/div&gt;&lt;br&gt;&lt;div&gt;&lt;font style=&quot;font-size: 11px&quot;&gt;%c4Description%&lt;/font&gt;&lt;/div&gt;" id="uGQQSx_CwPP-6w2Zcl26-31">
          <mxCell style="rounded=1;whiteSpace=wrap;html=1;labelBackgroundColor=none;fillColor=#63BEF2;fontColor=#ffffff;align=center;arcSize=6;strokeColor=#2086C9;metaEdit=1;resizable=0;points=[[0.25,0,0],[0.5,0,0],[0.75,0,0],[1,0.25,0],[1,0.5,0],[1,0.75,0],[0.75,1,0],[0.5,1,0],[0.25,1,0],[0,0.75,0],[0,0.5,0],[0,0.25,0]];" parent="1" vertex="1">
            <mxGeometry x="740" y="1030" width="240" height="120" as="geometry" />
          </mxCell>
        </object>
        <mxCell id="uGQQSx_CwPP-6w2Zcl26-32" style="edgeStyle=orthogonalEdgeStyle;shape=connector;rounded=0;orthogonalLoop=1;jettySize=auto;html=1;entryX=0.5;entryY=0;entryDx=0;entryDy=0;entryPerimeter=0;dashed=1;strokeColor=default;align=center;verticalAlign=middle;fontFamily=Helvetica;fontSize=11;fontColor=default;labelBackgroundColor=default;endArrow=classic;" parent="1" source="uGQQSx_CwPP-6w2Zcl26-7" target="uGQQSx_CwPP-6w2Zcl26-28" edge="1">
          <mxGeometry relative="1" as="geometry" />
        </mxCell>
        <mxCell id="uGQQSx_CwPP-6w2Zcl26-36" value="Executa operações em" style="edgeLabel;html=1;align=center;verticalAlign=middle;resizable=0;points=[];fontFamily=Helvetica;fontSize=11;fontColor=default;labelBackgroundColor=default;" parent="uGQQSx_CwPP-6w2Zcl26-32" vertex="1" connectable="0">
          <mxGeometry x="0.0991" y="4" relative="1" as="geometry">
            <mxPoint as="offset" />
          </mxGeometry>
        </mxCell>
        <mxCell id="uGQQSx_CwPP-6w2Zcl26-33" style="edgeStyle=orthogonalEdgeStyle;shape=connector;rounded=0;orthogonalLoop=1;jettySize=auto;html=1;entryX=0.5;entryY=0;entryDx=0;entryDy=0;entryPerimeter=0;dashed=1;strokeColor=default;align=center;verticalAlign=middle;fontFamily=Helvetica;fontSize=11;fontColor=default;labelBackgroundColor=default;endArrow=classic;" parent="1" source="uGQQSx_CwPP-6w2Zcl26-8" target="uGQQSx_CwPP-6w2Zcl26-29" edge="1">
          <mxGeometry relative="1" as="geometry" />
        </mxCell>
        <mxCell id="uGQQSx_CwPP-6w2Zcl26-34" style="edgeStyle=orthogonalEdgeStyle;shape=connector;rounded=0;orthogonalLoop=1;jettySize=auto;html=1;entryX=0.5;entryY=0;entryDx=0;entryDy=0;entryPerimeter=0;dashed=1;strokeColor=default;align=center;verticalAlign=middle;fontFamily=Helvetica;fontSize=11;fontColor=default;labelBackgroundColor=default;endArrow=classic;" parent="1" source="uGQQSx_CwPP-6w2Zcl26-9" target="uGQQSx_CwPP-6w2Zcl26-30" edge="1">
          <mxGeometry relative="1" as="geometry" />
        </mxCell>
        <mxCell id="uGQQSx_CwPP-6w2Zcl26-35" style="edgeStyle=orthogonalEdgeStyle;shape=connector;rounded=0;orthogonalLoop=1;jettySize=auto;html=1;entryX=0.5;entryY=0;entryDx=0;entryDy=0;entryPerimeter=0;dashed=1;strokeColor=default;align=center;verticalAlign=middle;fontFamily=Helvetica;fontSize=11;fontColor=default;labelBackgroundColor=default;endArrow=classic;" parent="1" source="uGQQSx_CwPP-6w2Zcl26-10" target="uGQQSx_CwPP-6w2Zcl26-31" edge="1">
          <mxGeometry relative="1" as="geometry" />
        </mxCell>
        <mxCell id="uGQQSx_CwPP-6w2Zcl26-37" value="Executa operações em" style="edgeLabel;html=1;align=center;verticalAlign=middle;resizable=0;points=[];fontFamily=Helvetica;fontSize=11;fontColor=default;labelBackgroundColor=default;" parent="1" vertex="1" connectable="0">
          <mxGeometry x="280" y="990" as="geometry" />
        </mxCell>
        <mxCell id="uGQQSx_CwPP-6w2Zcl26-38" value="Executa operações em" style="edgeLabel;html=1;align=center;verticalAlign=middle;resizable=0;points=[];fontFamily=Helvetica;fontSize=11;fontColor=default;labelBackgroundColor=default;" parent="1" vertex="1" connectable="0">
          <mxGeometry x="560" y="990" as="geometry" />
        </mxCell>
        <mxCell id="uGQQSx_CwPP-6w2Zcl26-39" value="Executa operações em" style="edgeLabel;html=1;align=center;verticalAlign=middle;resizable=0;points=[];fontFamily=Helvetica;fontSize=11;fontColor=default;labelBackgroundColor=default;" parent="1" vertex="1" connectable="0">
          <mxGeometry x="860" y="990" as="geometry" />
        </mxCell>
        <mxCell id="uGQQSx_CwPP-6w2Zcl26-40" style="edgeStyle=orthogonalEdgeStyle;shape=connector;rounded=0;orthogonalLoop=1;jettySize=auto;html=1;entryX=0.5;entryY=1;entryDx=0;entryDy=0;entryPerimeter=0;dashed=1;strokeColor=default;align=center;verticalAlign=middle;fontFamily=Helvetica;fontSize=11;fontColor=default;labelBackgroundColor=default;endArrow=classic;exitX=0.75;exitY=1;exitDx=0;exitDy=0;exitPerimeter=0;" parent="1" source="uGQQSx_CwPP-6w2Zcl26-28" target="uGQQSx_CwPP-6w2Zcl26-23" edge="1">
          <mxGeometry relative="1" as="geometry">
            <Array as="points">
              <mxPoint x="50" y="1220" />
              <mxPoint x="1210" y="1220" />
            </Array>
          </mxGeometry>
        </mxCell>
        <mxCell id="uGQQSx_CwPP-6w2Zcl26-41" style="edgeStyle=orthogonalEdgeStyle;shape=connector;rounded=0;orthogonalLoop=1;jettySize=auto;html=1;exitX=0.75;exitY=1;exitDx=0;exitDy=0;exitPerimeter=0;entryX=0.5;entryY=1;entryDx=0;entryDy=0;entryPerimeter=0;dashed=1;strokeColor=default;align=center;verticalAlign=middle;fontFamily=Helvetica;fontSize=11;fontColor=default;labelBackgroundColor=default;endArrow=classic;" parent="1" source="uGQQSx_CwPP-6w2Zcl26-29" target="uGQQSx_CwPP-6w2Zcl26-23" edge="1">
          <mxGeometry relative="1" as="geometry">
            <Array as="points">
              <mxPoint x="340" y="1220" />
              <mxPoint x="1210" y="1220" />
            </Array>
          </mxGeometry>
        </mxCell>
        <mxCell id="uGQQSx_CwPP-6w2Zcl26-43" style="edgeStyle=orthogonalEdgeStyle;shape=connector;rounded=0;orthogonalLoop=1;jettySize=auto;html=1;exitX=0.75;exitY=1;exitDx=0;exitDy=0;exitPerimeter=0;entryX=0.5;entryY=1;entryDx=0;entryDy=0;entryPerimeter=0;dashed=1;strokeColor=default;align=center;verticalAlign=middle;fontFamily=Helvetica;fontSize=11;fontColor=default;labelBackgroundColor=default;endArrow=classic;" parent="1" source="uGQQSx_CwPP-6w2Zcl26-31" target="uGQQSx_CwPP-6w2Zcl26-23" edge="1">
          <mxGeometry relative="1" as="geometry">
            <Array as="points">
              <mxPoint x="920" y="1220" />
              <mxPoint x="1210" y="1220" />
            </Array>
          </mxGeometry>
        </mxCell>
        <object placeholders="1" c4Name="Posts Públicos na Web" c4Type="Sistema Externo" c4Description="Qualquer site ou blog público na internet do qual o conteúdo pode ser importado." label="&lt;font style=&quot;font-size: 16px&quot;&gt;&lt;b&gt;%c4Name%&lt;/b&gt;&lt;/font&gt;&lt;div&gt;[%c4Type%]&lt;/div&gt;&lt;br&gt;&lt;div&gt;&lt;font style=&quot;font-size: 11px&quot;&gt;&lt;font color=&quot;#cccccc&quot;&gt;%c4Description%&lt;/font&gt;&lt;/div&gt;" id="uGQQSx_CwPP-6w2Zcl26-48">
          <mxCell style="rounded=1;whiteSpace=wrap;html=1;labelBackgroundColor=none;fillColor=#8C8496;fontColor=#ffffff;align=center;arcSize=10;strokeColor=#736782;metaEdit=1;resizable=0;points=[[0.25,0,0],[0.5,0,0],[0.75,0,0],[1,0.25,0],[1,0.5,0],[1,0.75,0],[0.75,1,0],[0.5,1,0],[0.25,1,0],[0,0.75,0],[0,0.5,0],[0,0.25,0]];" parent="1" vertex="1">
            <mxGeometry x="-665" y="380" width="240" height="120" as="geometry" />
          </mxCell>
        </object>
        <mxCell id="uGQQSx_CwPP-6w2Zcl26-50" style="edgeStyle=orthogonalEdgeStyle;shape=connector;rounded=0;orthogonalLoop=1;jettySize=auto;html=1;entryX=1;entryY=0.5;entryDx=0;entryDy=0;entryPerimeter=0;dashed=1;strokeColor=default;align=center;verticalAlign=middle;fontFamily=Helvetica;fontSize=11;fontColor=default;labelBackgroundColor=default;endArrow=classic;" parent="1" source="uGQQSx_CwPP-6w2Zcl26-7" target="uGQQSx_CwPP-6w2Zcl26-48" edge="1">
          <mxGeometry relative="1" as="geometry">
            <Array as="points">
              <mxPoint x="-210" y="880" />
              <mxPoint x="-210" y="440" />
            </Array>
          </mxGeometry>
        </mxCell>
        <mxCell id="uGQQSx_CwPP-6w2Zcl26-49" value="Importa conteúdo de texto a partir de uma&lt;div&gt;URL fornecida pelo usuário.&lt;/div&gt;" style="edgeLabel;html=1;align=center;verticalAlign=middle;resizable=0;points=[];" parent="1" vertex="1" connectable="0">
          <mxGeometry x="-220.0015877711831" y="440" as="geometry" />
        </mxCell>
        <object placeholders="1" c4Name="Banco de Dados" c4Type="Container" c4Technology="MySQL" c4Description="Persiste todos os dados da aplicação." label="&lt;font style=&quot;font-size: 16px&quot;&gt;&lt;b&gt;%c4Name%&lt;/b&gt;&lt;/font&gt;&lt;div&gt;[%c4Type%:&amp;nbsp;%c4Technology%]&lt;/div&gt;&lt;br&gt;&lt;div&gt;&lt;font style=&quot;font-size: 11px&quot;&gt;&lt;font color=&quot;#E6E6E6&quot;&gt;%c4Description%&lt;/font&gt;&lt;/div&gt;" id="uGQQSx_CwPP-6w2Zcl26-51">
          <mxCell style="shape=cylinder3;size=15;whiteSpace=wrap;html=1;boundedLbl=1;rounded=0;labelBackgroundColor=none;fillColor=#23A2D9;fontSize=12;fontColor=#ffffff;align=center;strokeColor=#0E7DAD;metaEdit=1;points=[[0.5,0,0],[1,0.25,0],[1,0.5,0],[1,0.75,0],[0.5,1,0],[0,0.75,0],[0,0.5,0],[0,0.25,0]];resizable=0;" parent="1" vertex="1">
            <mxGeometry x="310" y="1360" width="240" height="120" as="geometry" />
          </mxCell>
        </object>
        <mxCell id="uGQQSx_CwPP-6w2Zcl26-52" style="edgeStyle=orthogonalEdgeStyle;shape=connector;rounded=0;orthogonalLoop=1;jettySize=auto;html=1;exitX=0.25;exitY=1;exitDx=0;exitDy=0;exitPerimeter=0;entryX=0.5;entryY=0;entryDx=0;entryDy=0;entryPerimeter=0;dashed=1;strokeColor=default;align=center;verticalAlign=middle;fontFamily=Helvetica;fontSize=11;fontColor=default;labelBackgroundColor=default;endArrow=classic;" parent="1" source="uGQQSx_CwPP-6w2Zcl26-28" target="uGQQSx_CwPP-6w2Zcl26-51" edge="1">
          <mxGeometry relative="1" as="geometry">
            <Array as="points">
              <mxPoint x="-70" y="1240" />
              <mxPoint x="430" y="1240" />
            </Array>
          </mxGeometry>
        </mxCell>
        <mxCell id="uGQQSx_CwPP-6w2Zcl26-53" style="edgeStyle=orthogonalEdgeStyle;shape=connector;rounded=0;orthogonalLoop=1;jettySize=auto;html=1;exitX=0.25;exitY=1;exitDx=0;exitDy=0;exitPerimeter=0;entryX=0.5;entryY=0;entryDx=0;entryDy=0;entryPerimeter=0;dashed=1;strokeColor=default;align=center;verticalAlign=middle;fontFamily=Helvetica;fontSize=11;fontColor=default;labelBackgroundColor=default;endArrow=classic;" parent="1" source="uGQQSx_CwPP-6w2Zcl26-29" target="uGQQSx_CwPP-6w2Zcl26-51" edge="1">
          <mxGeometry relative="1" as="geometry">
            <Array as="points">
              <mxPoint x="220" y="1240" />
              <mxPoint x="430" y="1240" />
            </Array>
          </mxGeometry>
        </mxCell>
        <mxCell id="uGQQSx_CwPP-6w2Zcl26-56" value="Busca/Grava&lt;div&gt;dados em&lt;/div&gt;" style="edgeLabel;html=1;align=center;verticalAlign=middle;resizable=0;points=[];" parent="1" vertex="1" connectable="0">
          <mxGeometry x="-70" y="1190" as="geometry" />
        </mxCell>
        <mxCell id="uGQQSx_CwPP-6w2Zcl26-57" value="Busca/Grava&lt;div&gt;dados em&lt;/div&gt;" style="edgeLabel;html=1;align=center;verticalAlign=middle;resizable=0;points=[];" parent="1" vertex="1" connectable="0">
          <mxGeometry x="50" y="1190" as="geometry" />
        </mxCell>
        <mxCell id="uGQQSx_CwPP-6w2Zcl26-58" value="Busca/Grava&lt;div&gt;dados em&lt;/div&gt;" style="edgeLabel;html=1;align=center;verticalAlign=middle;resizable=0;points=[];" parent="1" vertex="1" connectable="0">
          <mxGeometry x="220" y="1190" as="geometry" />
        </mxCell>
        <mxCell id="uGQQSx_CwPP-6w2Zcl26-59" value="Busca/Grava&lt;div&gt;dados em&lt;/div&gt;" style="edgeLabel;html=1;align=center;verticalAlign=middle;resizable=0;points=[];" parent="1" vertex="1" connectable="0">
          <mxGeometry x="340" y="1190" as="geometry" />
        </mxCell>
        <mxCell id="uGQQSx_CwPP-6w2Zcl26-60" value="Busca/Grava&lt;div&gt;dados em&lt;/div&gt;" style="edgeLabel;html=1;align=center;verticalAlign=middle;resizable=0;points=[];" parent="1" vertex="1" connectable="0">
          <mxGeometry x="510" y="1190" as="geometry" />
        </mxCell>
        <mxCell id="uGQQSx_CwPP-6w2Zcl26-61" value="Busca/Grava&lt;div&gt;dados em&lt;/div&gt;" style="edgeLabel;html=1;align=center;verticalAlign=middle;resizable=0;points=[];" parent="1" vertex="1" connectable="0">
          <mxGeometry x="630" y="1190" as="geometry" />
        </mxCell>
        <mxCell id="uGQQSx_CwPP-6w2Zcl26-62" value="Busca/Grava&lt;div&gt;dados em&lt;/div&gt;" style="edgeLabel;html=1;align=center;verticalAlign=middle;resizable=0;points=[];" parent="1" vertex="1" connectable="0">
          <mxGeometry x="800" y="1190" as="geometry" />
        </mxCell>
        <mxCell id="uGQQSx_CwPP-6w2Zcl26-63" value="Busca/Grava&lt;div&gt;dados em&lt;/div&gt;" style="edgeLabel;html=1;align=center;verticalAlign=middle;resizable=0;points=[];" parent="1" vertex="1" connectable="0">
          <mxGeometry x="920" y="1190" as="geometry" />
        </mxCell>
        <object placeholders="1" c4Name="Gerenciador de Filas" c4Type="Container" c4Technology="RabbitMQ" c4Description="Fila para desacoplar tarefas pesadas." label="&lt;font style=&quot;font-size: 16px&quot;&gt;&lt;b&gt;%c4Name%&lt;/b&gt;&lt;/font&gt;&lt;div&gt;[%c4Type%:&amp;nbsp;%c4Technology%]&lt;/div&gt;&lt;br&gt;&lt;div&gt;&lt;font style=&quot;font-size: 11px&quot;&gt;&lt;font color=&quot;#E6E6E6&quot;&gt;%c4Description%&lt;/font&gt;&lt;/div&gt;" id="uGQQSx_CwPP-6w2Zcl26-64">
          <mxCell style="shape=cylinder3;size=15;direction=south;whiteSpace=wrap;html=1;boundedLbl=1;rounded=0;labelBackgroundColor=none;fillColor=#23A2D9;fontSize=12;fontColor=#ffffff;align=center;strokeColor=#0E7DAD;metaEdit=1;points=[[0.5,0,0],[1,0.25,0],[1,0.5,0],[1,0.75,0],[0.5,1,0],[0,0.75,0],[0,0.5,0],[0,0.25,0]];resizable=0;" parent="1" vertex="1">
            <mxGeometry x="-900" y="580" width="240" height="120" as="geometry" />
          </mxCell>
        </object>
        <object placeholders="1" c4Name="Sistema de E-mail" c4Type="Sistema Externo" c4Description="Serviço externo responsável pelo envio de e-mails transacionais (Ex: SendGrid)" label="&lt;font style=&quot;font-size: 16px&quot;&gt;&lt;b&gt;%c4Name%&lt;/b&gt;&lt;/font&gt;&lt;div&gt;[%c4Type%]&lt;/div&gt;&lt;br&gt;&lt;div&gt;&lt;font style=&quot;font-size: 11px&quot;&gt;&lt;font color=&quot;#cccccc&quot;&gt;%c4Description%&lt;/font&gt;&lt;/div&gt;" id="uGQQSx_CwPP-6w2Zcl26-65">
          <mxCell style="rounded=1;whiteSpace=wrap;html=1;labelBackgroundColor=none;fillColor=#8C8496;fontColor=#ffffff;align=center;arcSize=10;strokeColor=#736782;metaEdit=1;resizable=0;points=[[0.25,0,0],[0.5,0,0],[0.75,0,0],[1,0.25,0],[1,0.5,0],[1,0.75,0],[0.75,1,0],[0.5,1,0],[0.25,1,0],[0,0.75,0],[0,0.5,0],[0,0.25,0]];" parent="1" vertex="1">
            <mxGeometry x="-560" y="1020" width="240" height="120" as="geometry" />
          </mxCell>
        </object>
        <object placeholders="1" c4Name="Plataformas Externas" c4Type="Sistema Externo" c4Description="APIs de redes sociais e outras plataformas onde o conteúdo será publicado (ex: Twitter API, LinkedIn API, Instagram API)" label="&lt;font style=&quot;font-size: 16px&quot;&gt;&lt;b&gt;%c4Name%&lt;/b&gt;&lt;/font&gt;&lt;div&gt;[%c4Type%]&lt;/div&gt;&lt;br&gt;&lt;div&gt;&lt;font style=&quot;font-size: 11px&quot;&gt;&lt;font color=&quot;#cccccc&quot;&gt;%c4Description%&lt;/font&gt;&lt;/div&gt;" id="uGQQSx_CwPP-6w2Zcl26-66">
          <mxCell style="rounded=1;whiteSpace=wrap;html=1;labelBackgroundColor=none;fillColor=#8C8496;fontColor=#ffffff;align=center;arcSize=10;strokeColor=#736782;metaEdit=1;resizable=0;points=[[0.25,0,0],[0.5,0,0],[0.75,0,0],[1,0.25,0],[1,0.5,0],[1,0.75,0],[0.75,1,0],[0.5,1,0],[0.25,1,0],[0,0.75,0],[0,0.5,0],[0,0.25,0]];" parent="1" vertex="1">
            <mxGeometry x="-905" y="1020" width="240" height="120" as="geometry" />
          </mxCell>
        </object>
        <object placeholders="1" c4Name="Serviço de Publicação" c4Type="Container" c4Technology="Golang" c4Description="Processa a fila de publicações." label="&lt;font style=&quot;font-size: 16px&quot;&gt;&lt;b&gt;%c4Name%&lt;/b&gt;&lt;/font&gt;&lt;div&gt;[%c4Type%: %c4Technology%]&lt;/div&gt;&lt;br&gt;&lt;div&gt;&lt;font style=&quot;font-size: 11px&quot;&gt;&lt;font color=&quot;#E6E6E6&quot;&gt;%c4Description%&lt;/font&gt;&lt;/div&gt;" id="uGQQSx_CwPP-6w2Zcl26-67">
          <mxCell style="rounded=1;whiteSpace=wrap;html=1;fontSize=11;labelBackgroundColor=none;fillColor=#23A2D9;fontColor=#ffffff;align=center;arcSize=10;strokeColor=#0E7DAD;metaEdit=1;resizable=0;points=[[0.25,0,0],[0.5,0,0],[0.75,0,0],[1,0.25,0],[1,0.5,0],[1,0.75,0],[0.75,1,0],[0.5,1,0],[0.25,1,0],[0,0.75,0],[0,0.5,0],[0,0.25,0]];" parent="1" vertex="1">
            <mxGeometry x="-900" y="790" width="240" height="120" as="geometry" />
          </mxCell>
        </object>
        <object placeholders="1" c4Name="Serviço de E-mails" c4Type="Container" c4Technology="Golang" c4Description="Processa a fila de e-mails para envio." label="&lt;font style=&quot;font-size: 16px&quot;&gt;&lt;b&gt;%c4Name%&lt;/b&gt;&lt;/font&gt;&lt;div&gt;[%c4Type%: %c4Technology%]&lt;/div&gt;&lt;br&gt;&lt;div&gt;&lt;font style=&quot;font-size: 11px&quot;&gt;&lt;font color=&quot;#E6E6E6&quot;&gt;%c4Description%&lt;/font&gt;&lt;/div&gt;" id="uGQQSx_CwPP-6w2Zcl26-68">
          <mxCell style="rounded=1;whiteSpace=wrap;html=1;fontSize=11;labelBackgroundColor=none;fillColor=#23A2D9;fontColor=#ffffff;align=center;arcSize=10;strokeColor=#0E7DAD;metaEdit=1;resizable=0;points=[[0.25,0,0],[0.5,0,0],[0.75,0,0],[1,0.25,0],[1,0.5,0],[1,0.75,0],[0.75,1,0],[0.5,1,0],[0.25,1,0],[0,0.75,0],[0,0.5,0],[0,0.25,0]];" parent="1" vertex="1">
            <mxGeometry x="-560" y="790" width="240" height="120" as="geometry" />
          </mxCell>
        </object>
        <mxCell id="uGQQSx_CwPP-6w2Zcl26-70" style="edgeStyle=orthogonalEdgeStyle;shape=connector;rounded=0;orthogonalLoop=1;jettySize=auto;html=1;exitX=0.25;exitY=1;exitDx=0;exitDy=0;exitPerimeter=0;entryX=0.5;entryY=1;entryDx=0;entryDy=0;entryPerimeter=0;dashed=1;strokeColor=default;align=center;verticalAlign=middle;fontFamily=Helvetica;fontSize=11;fontColor=default;labelBackgroundColor=default;endArrow=classic;" parent="1" source="uGQQSx_CwPP-6w2Zcl26-7" target="uGQQSx_CwPP-6w2Zcl26-64" edge="1">
          <mxGeometry relative="1" as="geometry">
            <Array as="points">
              <mxPoint x="-70" y="970" />
              <mxPoint x="-270" y="970" />
              <mxPoint x="-270" y="1210" />
              <mxPoint x="-980" y="1210" />
              <mxPoint x="-980" y="640" />
            </Array>
          </mxGeometry>
        </mxCell>
        <mxCell id="uGQQSx_CwPP-6w2Zcl26-73" style="edgeStyle=orthogonalEdgeStyle;shape=connector;rounded=0;orthogonalLoop=1;jettySize=auto;html=1;exitX=0.25;exitY=1;exitDx=0;exitDy=0;exitPerimeter=0;entryX=0.5;entryY=1;entryDx=0;entryDy=0;entryPerimeter=0;dashed=1;strokeColor=default;align=center;verticalAlign=middle;fontFamily=Helvetica;fontSize=11;fontColor=default;labelBackgroundColor=default;endArrow=classic;" parent="1" source="uGQQSx_CwPP-6w2Zcl26-10" target="uGQQSx_CwPP-6w2Zcl26-64" edge="1">
          <mxGeometry relative="1" as="geometry">
            <Array as="points">
              <mxPoint x="800" y="970" />
              <mxPoint x="-270" y="970" />
              <mxPoint x="-270" y="1210" />
              <mxPoint x="-980" y="1210" />
              <mxPoint x="-980" y="640" />
            </Array>
          </mxGeometry>
        </mxCell>
        <mxCell id="uGQQSx_CwPP-6w2Zcl26-75" value="Publica eventos para&amp;nbsp;&lt;div&gt;processamento (e-mail, post)&lt;/div&gt;" style="edgeLabel;html=1;align=center;verticalAlign=middle;resizable=0;points=[];" parent="1" vertex="1" connectable="0">
          <mxGeometry x="-990" y="650" as="geometry" />
        </mxCell>
        <mxCell id="uGQQSx_CwPP-6w2Zcl26-76" style="edgeStyle=orthogonalEdgeStyle;shape=connector;rounded=0;orthogonalLoop=1;jettySize=auto;html=1;entryX=0.5;entryY=0;entryDx=0;entryDy=0;entryPerimeter=0;dashed=1;strokeColor=default;align=center;verticalAlign=middle;fontFamily=Helvetica;fontSize=11;fontColor=default;labelBackgroundColor=default;endArrow=classic;" parent="1" source="uGQQSx_CwPP-6w2Zcl26-64" target="uGQQSx_CwPP-6w2Zcl26-67" edge="1">
          <mxGeometry relative="1" as="geometry" />
        </mxCell>
        <mxCell id="uGQQSx_CwPP-6w2Zcl26-77" style="edgeStyle=orthogonalEdgeStyle;shape=connector;rounded=0;orthogonalLoop=1;jettySize=auto;html=1;entryX=0.5;entryY=0;entryDx=0;entryDy=0;entryPerimeter=0;dashed=1;strokeColor=default;align=center;verticalAlign=middle;fontFamily=Helvetica;fontSize=11;fontColor=default;labelBackgroundColor=default;endArrow=classic;" parent="1" source="uGQQSx_CwPP-6w2Zcl26-64" target="uGQQSx_CwPP-6w2Zcl26-68" edge="1">
          <mxGeometry relative="1" as="geometry">
            <mxPoint x="-700" y="880" as="targetPoint" />
          </mxGeometry>
        </mxCell>
        <mxCell id="uGQQSx_CwPP-6w2Zcl26-78" style="edgeStyle=orthogonalEdgeStyle;shape=connector;rounded=0;orthogonalLoop=1;jettySize=auto;html=1;entryX=0.5;entryY=0;entryDx=0;entryDy=0;entryPerimeter=0;dashed=1;strokeColor=default;align=center;verticalAlign=middle;fontFamily=Helvetica;fontSize=11;fontColor=default;labelBackgroundColor=default;endArrow=classic;" parent="1" source="uGQQSx_CwPP-6w2Zcl26-68" target="uGQQSx_CwPP-6w2Zcl26-65" edge="1">
          <mxGeometry relative="1" as="geometry" />
        </mxCell>
        <mxCell id="uGQQSx_CwPP-6w2Zcl26-79" style="edgeStyle=orthogonalEdgeStyle;shape=connector;rounded=0;orthogonalLoop=1;jettySize=auto;html=1;entryX=0.5;entryY=0;entryDx=0;entryDy=0;entryPerimeter=0;dashed=1;strokeColor=default;align=center;verticalAlign=middle;fontFamily=Helvetica;fontSize=11;fontColor=default;labelBackgroundColor=default;endArrow=classic;" parent="1" source="uGQQSx_CwPP-6w2Zcl26-67" target="uGQQSx_CwPP-6w2Zcl26-66" edge="1">
          <mxGeometry relative="1" as="geometry" />
        </mxCell>
        <mxCell id="uGQQSx_CwPP-6w2Zcl26-80" value="Entrega itens de e-mail para" style="edgeLabel;html=1;align=center;verticalAlign=middle;resizable=0;points=[];" parent="1" vertex="1" connectable="0">
          <mxGeometry x="-450" y="660" as="geometry" />
        </mxCell>
        <mxCell id="uGQQSx_CwPP-6w2Zcl26-82" value="Entrega itens de&amp;nbsp;&lt;div&gt;publicação para&lt;/div&gt;" style="edgeLabel;html=1;align=center;verticalAlign=middle;resizable=0;points=[];" parent="1" vertex="1" connectable="0">
          <mxGeometry x="-770" y="740" as="geometry" />
        </mxCell>
        <mxCell id="uGQQSx_CwPP-6w2Zcl26-83" value="Envia e-mail via" style="edgeLabel;html=1;align=center;verticalAlign=middle;resizable=0;points=[];" parent="1" vertex="1" connectable="0">
          <mxGeometry x="-440" y="950" as="geometry" />
        </mxCell>
        <mxCell id="uGQQSx_CwPP-6w2Zcl26-84" value="Envia publicação para" style="edgeLabel;html=1;align=center;verticalAlign=middle;resizable=0;points=[];" parent="1" vertex="1" connectable="0">
          <mxGeometry x="-790" y="960" as="geometry" />
        </mxCell>
      </root>
    </mxGraphModel>
  </diagram>
</mxfile>
